<?xml version="1.0" encoding="utf-8" standalone="no"?>
<!DOCTYPE svg PUBLIC "-//W3C//DTD SVG 1.1//EN"
  "http://www.w3.org/Graphics/SVG/1.1/DTD/svg11.dtd">
<!-- Created with matplotlib (http://matplotlib.org/) -->
<svg height="288pt" version="1.1" viewBox="0 0 432 288" width="432pt" xmlns="http://www.w3.org/2000/svg" xmlns:xlink="http://www.w3.org/1999/xlink">
 <defs>
  <style type="text/css">
*{stroke-linecap:butt;stroke-linejoin:round;}
  </style>
 </defs>
 <g id="figure_1">
  <g id="patch_1">
   <path d="M 0 288 
L 432 288 
L 432 0 
L 0 0 
z
" style="fill:#ffffff;"/>
  </g>
  <g id="axes_1">
   <g id="patch_2">
    <path d="M 188.87 144 
C 188.87 142.190405 188.836731 140.381119 188.770227 138.574 
C 188.703723 136.766881 188.604007 134.962546 188.471181 133.162848 
L 115.95 144 
L 188.87 144 
z
" style="fill:#1f77b4;"/>
   </g>
   <g id="patch_3">
    <path d="M 188.471181 133.162848 
C 187.458675 119.444126 184.533669 106.149431 179.867654 94.058226 
C 175.201639 81.96702 168.887621 71.320314 161.295789 62.74232 
L 115.95 144 
L 188.471181 133.162848 
z
" style="fill:#ff7f0e;"/>
   </g>
   <g id="patch_4">
    <path d="M 161.295789 62.74232 
C 154.885655 55.499524 147.663995 49.843928 139.93415 46.013091 
C 132.204306 42.182254 124.076042 40.230576 115.890781 40.240034 
C 107.70552 40.249493 99.579495 42.219954 91.854033 46.068651 
C 84.128572 49.917347 76.913377 55.589626 70.511519 62.847228 
C 64.10966 70.104829 58.612046 78.844694 54.2496 88.699709 
C 49.887153 98.554724 46.721822 109.384946 44.886564 120.73546 
C 43.051305 132.085973 42.572181 143.795598 43.469316 155.37248 
C 44.366451 166.949361 46.627106 178.229105 50.156324 188.737913 
C 53.685541 199.246721 58.433206 208.835366 64.199895 217.101084 
C 69.966583 225.366801 76.670408 232.192215 84.02978 237.29063 
C 91.389152 242.389046 99.299565 245.688062 107.428749 247.049108 
C 115.557932 248.410154 123.79045 247.813901 131.780501 245.285395 
C 139.770551 242.756889 147.404674 238.332035 154.362203 232.196697 
C 161.319732 226.061358 167.501869 218.302658 172.648937 209.246496 
C 177.796005 200.190333 181.834914 189.965307 184.596014 179.000913 
C 187.357113 168.036519 188.801195 156.488454 188.8676 144.841786 
L 115.95 144 
L 161.295789 62.74232 
z
" style="fill:#2ca02c;"/>
   </g>
   <g id="patch_5">
    <path d="M 188.8676 144.841786 
C 188.8684 144.701489 188.869 144.56119 188.8694 144.42089 
C 188.8698 144.280589 188.87 144.140287 188.87 143.999986 
L 115.95 144 
L 188.8676 144.841786 
z
" style="fill:#d62728;"/>
   </g>
   <g id="matplotlib.axis_1"/>
   <g id="matplotlib.axis_2">
    <g id="text_1">
     <!-- Common -->
     <defs>
      <path d="M 64.40625 67.28125 
L 64.40625 56.890625 
Q 59.421875 61.53125 53.78125 63.8125 
Q 48.140625 66.109375 41.796875 66.109375 
Q 29.296875 66.109375 22.65625 58.46875 
Q 16.015625 50.828125 16.015625 36.375 
Q 16.015625 21.96875 22.65625 14.328125 
Q 29.296875 6.6875 41.796875 6.6875 
Q 48.140625 6.6875 53.78125 8.984375 
Q 59.421875 11.28125 64.40625 15.921875 
L 64.40625 5.609375 
Q 59.234375 2.09375 53.4375 0.328125 
Q 47.65625 -1.421875 41.21875 -1.421875 
Q 24.65625 -1.421875 15.125 8.703125 
Q 5.609375 18.84375 5.609375 36.375 
Q 5.609375 53.953125 15.125 64.078125 
Q 24.65625 74.21875 41.21875 74.21875 
Q 47.75 74.21875 53.53125 72.484375 
Q 59.328125 70.75 64.40625 67.28125 
z
" id="DejaVuSans-43"/>
      <path d="M 30.609375 48.390625 
Q 23.390625 48.390625 19.1875 42.75 
Q 14.984375 37.109375 14.984375 27.296875 
Q 14.984375 17.484375 19.15625 11.84375 
Q 23.34375 6.203125 30.609375 6.203125 
Q 37.796875 6.203125 41.984375 11.859375 
Q 46.1875 17.53125 46.1875 27.296875 
Q 46.1875 37.015625 41.984375 42.703125 
Q 37.796875 48.390625 30.609375 48.390625 
z
M 30.609375 56 
Q 42.328125 56 49.015625 48.375 
Q 55.71875 40.765625 55.71875 27.296875 
Q 55.71875 13.875 49.015625 6.21875 
Q 42.328125 -1.421875 30.609375 -1.421875 
Q 18.84375 -1.421875 12.171875 6.21875 
Q 5.515625 13.875 5.515625 27.296875 
Q 5.515625 40.765625 12.171875 48.375 
Q 18.84375 56 30.609375 56 
z
" id="DejaVuSans-6f"/>
      <path d="M 52 44.1875 
Q 55.375 50.25 60.0625 53.125 
Q 64.75 56 71.09375 56 
Q 79.640625 56 84.28125 50.015625 
Q 88.921875 44.046875 88.921875 33.015625 
L 88.921875 0 
L 79.890625 0 
L 79.890625 32.71875 
Q 79.890625 40.578125 77.09375 44.375 
Q 74.3125 48.1875 68.609375 48.1875 
Q 61.625 48.1875 57.5625 43.546875 
Q 53.515625 38.921875 53.515625 30.90625 
L 53.515625 0 
L 44.484375 0 
L 44.484375 32.71875 
Q 44.484375 40.625 41.703125 44.40625 
Q 38.921875 48.1875 33.109375 48.1875 
Q 26.21875 48.1875 22.15625 43.53125 
Q 18.109375 38.875 18.109375 30.90625 
L 18.109375 0 
L 9.078125 0 
L 9.078125 54.6875 
L 18.109375 54.6875 
L 18.109375 46.1875 
Q 21.1875 51.21875 25.484375 53.609375 
Q 29.78125 56 35.6875 56 
Q 41.65625 56 45.828125 52.96875 
Q 50 49.953125 52 44.1875 
z
" id="DejaVuSans-6d"/>
      <path d="M 54.890625 33.015625 
L 54.890625 0 
L 45.90625 0 
L 45.90625 32.71875 
Q 45.90625 40.484375 42.875 44.328125 
Q 39.84375 48.1875 33.796875 48.1875 
Q 26.515625 48.1875 22.3125 43.546875 
Q 18.109375 38.921875 18.109375 30.90625 
L 18.109375 0 
L 9.078125 0 
L 9.078125 54.6875 
L 18.109375 54.6875 
L 18.109375 46.1875 
Q 21.34375 51.125 25.703125 53.5625 
Q 30.078125 56 35.796875 56 
Q 45.21875 56 50.046875 50.171875 
Q 54.890625 44.34375 54.890625 33.015625 
z
" id="DejaVuSans-6e"/>
     </defs>
     <g transform="translate(18.720313 166.519531)rotate(-90)scale(0.1 -0.1)">
      <use xlink:href="#DejaVuSans-43"/>
      <use x="69.824219" xlink:href="#DejaVuSans-6f"/>
      <use x="131.005859" xlink:href="#DejaVuSans-6d"/>
      <use x="228.417969" xlink:href="#DejaVuSans-6d"/>
      <use x="325.830078" xlink:href="#DejaVuSans-6f"/>
      <use x="387.011719" xlink:href="#DejaVuSans-6e"/>
     </g>
    </g>
   </g>
   <g id="text_2">
    <!-- EXONIC -->
    <defs>
     <path d="M 9.8125 72.90625 
L 55.90625 72.90625 
L 55.90625 64.59375 
L 19.671875 64.59375 
L 19.671875 43.015625 
L 54.390625 43.015625 
L 54.390625 34.71875 
L 19.671875 34.71875 
L 19.671875 8.296875 
L 56.78125 8.296875 
L 56.78125 0 
L 9.8125 0 
z
" id="DejaVuSans-45"/>
     <path d="M 6.296875 72.90625 
L 16.890625 72.90625 
L 35.015625 45.796875 
L 53.21875 72.90625 
L 63.8125 72.90625 
L 40.375 37.890625 
L 65.375 0 
L 54.78125 0 
L 34.28125 31 
L 13.625 0 
L 2.984375 0 
L 29 38.921875 
z
" id="DejaVuSans-58"/>
     <path d="M 39.40625 66.21875 
Q 28.65625 66.21875 22.328125 58.203125 
Q 16.015625 50.203125 16.015625 36.375 
Q 16.015625 22.609375 22.328125 14.59375 
Q 28.65625 6.59375 39.40625 6.59375 
Q 50.140625 6.59375 56.421875 14.59375 
Q 62.703125 22.609375 62.703125 36.375 
Q 62.703125 50.203125 56.421875 58.203125 
Q 50.140625 66.21875 39.40625 66.21875 
z
M 39.40625 74.21875 
Q 54.734375 74.21875 63.90625 63.9375 
Q 73.09375 53.65625 73.09375 36.375 
Q 73.09375 19.140625 63.90625 8.859375 
Q 54.734375 -1.421875 39.40625 -1.421875 
Q 24.03125 -1.421875 14.8125 8.828125 
Q 5.609375 19.09375 5.609375 36.375 
Q 5.609375 53.65625 14.8125 63.9375 
Q 24.03125 74.21875 39.40625 74.21875 
z
" id="DejaVuSans-4f"/>
     <path d="M 9.8125 72.90625 
L 23.09375 72.90625 
L 55.421875 11.921875 
L 55.421875 72.90625 
L 64.984375 72.90625 
L 64.984375 0 
L 51.703125 0 
L 19.390625 60.984375 
L 19.390625 0 
L 9.8125 0 
z
" id="DejaVuSans-4e"/>
     <path d="M 9.8125 72.90625 
L 19.671875 72.90625 
L 19.671875 0 
L 9.8125 0 
z
" id="DejaVuSans-49"/>
    </defs>
    <g transform="translate(196.05225 140.790775)scale(0.1 -0.1)">
     <use xlink:href="#DejaVuSans-45"/>
     <use x="63.183594" xlink:href="#DejaVuSans-58"/>
     <use x="131.595703" xlink:href="#DejaVuSans-4f"/>
     <use x="210.306641" xlink:href="#DejaVuSans-4e"/>
     <use x="285.111328" xlink:href="#DejaVuSans-49"/>
     <use x="314.603516" xlink:href="#DejaVuSans-43"/>
    </g>
   </g>
   <g id="text_3">
    <!-- GENEHANCER -->
    <defs>
     <path d="M 59.515625 10.40625 
L 59.515625 29.984375 
L 43.40625 29.984375 
L 43.40625 38.09375 
L 69.28125 38.09375 
L 69.28125 6.78125 
Q 63.578125 2.734375 56.6875 0.65625 
Q 49.8125 -1.421875 42 -1.421875 
Q 24.90625 -1.421875 15.25 8.5625 
Q 5.609375 18.5625 5.609375 36.375 
Q 5.609375 54.25 15.25 64.234375 
Q 24.90625 74.21875 42 74.21875 
Q 49.125 74.21875 55.546875 72.453125 
Q 61.96875 70.703125 67.390625 67.28125 
L 67.390625 56.78125 
Q 61.921875 61.421875 55.765625 63.765625 
Q 49.609375 66.109375 42.828125 66.109375 
Q 29.4375 66.109375 22.71875 58.640625 
Q 16.015625 51.171875 16.015625 36.375 
Q 16.015625 21.625 22.71875 14.15625 
Q 29.4375 6.6875 42.828125 6.6875 
Q 48.046875 6.6875 52.140625 7.59375 
Q 56.25 8.5 59.515625 10.40625 
z
" id="DejaVuSans-47"/>
     <path d="M 9.8125 72.90625 
L 19.671875 72.90625 
L 19.671875 43.015625 
L 55.515625 43.015625 
L 55.515625 72.90625 
L 65.375 72.90625 
L 65.375 0 
L 55.515625 0 
L 55.515625 34.71875 
L 19.671875 34.71875 
L 19.671875 0 
L 9.8125 0 
z
" id="DejaVuSans-48"/>
     <path d="M 34.1875 63.1875 
L 20.796875 26.90625 
L 47.609375 26.90625 
z
M 28.609375 72.90625 
L 39.796875 72.90625 
L 67.578125 0 
L 57.328125 0 
L 50.6875 18.703125 
L 17.828125 18.703125 
L 11.1875 0 
L 0.78125 0 
z
" id="DejaVuSans-41"/>
     <path d="M 44.390625 34.1875 
Q 47.5625 33.109375 50.5625 29.59375 
Q 53.5625 26.078125 56.59375 19.921875 
L 66.609375 0 
L 56 0 
L 46.6875 18.703125 
Q 43.0625 26.03125 39.671875 28.421875 
Q 36.28125 30.8125 30.421875 30.8125 
L 19.671875 30.8125 
L 19.671875 0 
L 9.8125 0 
L 9.8125 72.90625 
L 32.078125 72.90625 
Q 44.578125 72.90625 50.734375 67.671875 
Q 56.890625 62.453125 56.890625 51.90625 
Q 56.890625 45.015625 53.6875 40.46875 
Q 50.484375 35.9375 44.390625 34.1875 
z
M 19.671875 64.796875 
L 19.671875 38.921875 
L 32.078125 38.921875 
Q 39.203125 38.921875 42.84375 42.21875 
Q 46.484375 45.515625 46.484375 51.90625 
Q 46.484375 58.296875 42.84375 61.546875 
Q 39.203125 64.796875 32.078125 64.796875 
z
" id="DejaVuSans-52"/>
    </defs>
    <g transform="translate(186.259419 91.823423)scale(0.1 -0.1)">
     <use xlink:href="#DejaVuSans-47"/>
     <use x="77.490234" xlink:href="#DejaVuSans-45"/>
     <use x="140.673828" xlink:href="#DejaVuSans-4e"/>
     <use x="215.478516" xlink:href="#DejaVuSans-45"/>
     <use x="278.662109" xlink:href="#DejaVuSans-48"/>
     <use x="353.857422" xlink:href="#DejaVuSans-41"/>
     <use x="422.265625" xlink:href="#DejaVuSans-4e"/>
     <use x="497.070312" xlink:href="#DejaVuSans-43"/>
     <use x="566.894531" xlink:href="#DejaVuSans-45"/>
     <use x="630.078125" xlink:href="#DejaVuSans-52"/>
    </g>
   </g>
   <g id="text_4">
    <!-- OTHER -->
    <defs>
     <path d="M -0.296875 72.90625 
L 61.375 72.90625 
L 61.375 64.59375 
L 35.5 64.59375 
L 35.5 0 
L 25.59375 0 
L 25.59375 64.59375 
L -0.296875 64.59375 
z
" id="DejaVuSans-54"/>
    </defs>
    <g transform="translate(8.809769 195.97108)scale(0.1 -0.1)">
     <use xlink:href="#DejaVuSans-4f"/>
     <use x="78.710938" xlink:href="#DejaVuSans-54"/>
     <use x="139.794922" xlink:href="#DejaVuSans-48"/>
     <use x="214.990234" xlink:href="#DejaVuSans-45"/>
     <use x="278.173828" xlink:href="#DejaVuSans-52"/>
    </g>
   </g>
   <g id="text_5">
    <!-- SPLICING -->
    <defs>
     <path d="M 53.515625 70.515625 
L 53.515625 60.890625 
Q 47.90625 63.578125 42.921875 64.890625 
Q 37.9375 66.21875 33.296875 66.21875 
Q 25.25 66.21875 20.875 63.09375 
Q 16.5 59.96875 16.5 54.203125 
Q 16.5 49.359375 19.40625 46.890625 
Q 22.3125 44.4375 30.421875 42.921875 
L 36.375 41.703125 
Q 47.40625 39.59375 52.65625 34.296875 
Q 57.90625 29 57.90625 20.125 
Q 57.90625 9.515625 50.796875 4.046875 
Q 43.703125 -1.421875 29.984375 -1.421875 
Q 24.8125 -1.421875 18.96875 -0.25 
Q 13.140625 0.921875 6.890625 3.21875 
L 6.890625 13.375 
Q 12.890625 10.015625 18.65625 8.296875 
Q 24.421875 6.59375 29.984375 6.59375 
Q 38.421875 6.59375 43.015625 9.90625 
Q 47.609375 13.234375 47.609375 19.390625 
Q 47.609375 24.75 44.3125 27.78125 
Q 41.015625 30.8125 33.5 32.328125 
L 27.484375 33.5 
Q 16.453125 35.6875 11.515625 40.375 
Q 6.59375 45.0625 6.59375 53.421875 
Q 6.59375 63.09375 13.40625 68.65625 
Q 20.21875 74.21875 32.171875 74.21875 
Q 37.3125 74.21875 42.625 73.28125 
Q 47.953125 72.359375 53.515625 70.515625 
z
" id="DejaVuSans-53"/>
     <path d="M 19.671875 64.796875 
L 19.671875 37.40625 
L 32.078125 37.40625 
Q 38.96875 37.40625 42.71875 40.96875 
Q 46.484375 44.53125 46.484375 51.125 
Q 46.484375 57.671875 42.71875 61.234375 
Q 38.96875 64.796875 32.078125 64.796875 
z
M 9.8125 72.90625 
L 32.078125 72.90625 
Q 44.34375 72.90625 50.609375 67.359375 
Q 56.890625 61.8125 56.890625 51.125 
Q 56.890625 40.328125 50.609375 34.8125 
Q 44.34375 29.296875 32.078125 29.296875 
L 19.671875 29.296875 
L 19.671875 0 
L 9.8125 0 
z
" id="DejaVuSans-50"/>
     <path d="M 9.8125 72.90625 
L 19.671875 72.90625 
L 19.671875 8.296875 
L 55.171875 8.296875 
L 55.171875 0 
L 9.8125 0 
z
" id="DejaVuSans-4c"/>
    </defs>
    <g transform="translate(196.16134 147.222353)scale(0.1 -0.1)">
     <use xlink:href="#DejaVuSans-53"/>
     <use x="63.476562" xlink:href="#DejaVuSans-50"/>
     <use x="123.779297" xlink:href="#DejaVuSans-4c"/>
     <use x="179.492188" xlink:href="#DejaVuSans-49"/>
     <use x="208.984375" xlink:href="#DejaVuSans-43"/>
     <use x="278.808594" xlink:href="#DejaVuSans-49"/>
     <use x="308.300781" xlink:href="#DejaVuSans-4e"/>
     <use x="383.105469" xlink:href="#DejaVuSans-47"/>
    </g>
   </g>
   <g id="legend_1">
    <g id="patch_6">
     <path d="M 31.8 268.7 
L 133.759375 268.7 
Q 135.759375 268.7 135.759375 266.7 
L 135.759375 208.9875 
Q 135.759375 206.9875 133.759375 206.9875 
L 31.8 206.9875 
Q 29.8 206.9875 29.8 208.9875 
L 29.8 266.7 
Q 29.8 268.7 31.8 268.7 
z
" style="fill:#ffffff;opacity:0.8;stroke:#cccccc;stroke-linejoin:miter;"/>
    </g>
    <g id="patch_7">
     <path d="M 33.8 218.585938 
L 53.8 218.585938 
L 53.8 211.585938 
L 33.8 211.585938 
z
" style="fill:#1f77b4;"/>
    </g>
    <g id="text_6">
     <!-- EXONIC -->
     <g transform="translate(61.8 218.585938)scale(0.1 -0.1)">
      <use xlink:href="#DejaVuSans-45"/>
      <use x="63.183594" xlink:href="#DejaVuSans-58"/>
      <use x="131.595703" xlink:href="#DejaVuSans-4f"/>
      <use x="210.306641" xlink:href="#DejaVuSans-4e"/>
      <use x="285.111328" xlink:href="#DejaVuSans-49"/>
      <use x="314.603516" xlink:href="#DejaVuSans-43"/>
     </g>
    </g>
    <g id="patch_8">
     <path d="M 33.8 233.264062 
L 53.8 233.264062 
L 53.8 226.264062 
L 33.8 226.264062 
z
" style="fill:#ff7f0e;"/>
    </g>
    <g id="text_7">
     <!-- GENEHANCER -->
     <g transform="translate(61.8 233.264062)scale(0.1 -0.1)">
      <use xlink:href="#DejaVuSans-47"/>
      <use x="77.490234" xlink:href="#DejaVuSans-45"/>
      <use x="140.673828" xlink:href="#DejaVuSans-4e"/>
      <use x="215.478516" xlink:href="#DejaVuSans-45"/>
      <use x="278.662109" xlink:href="#DejaVuSans-48"/>
      <use x="353.857422" xlink:href="#DejaVuSans-41"/>
      <use x="422.265625" xlink:href="#DejaVuSans-4e"/>
      <use x="497.070312" xlink:href="#DejaVuSans-43"/>
      <use x="566.894531" xlink:href="#DejaVuSans-45"/>
      <use x="630.078125" xlink:href="#DejaVuSans-52"/>
     </g>
    </g>
    <g id="patch_9">
     <path d="M 33.8 247.942187 
L 53.8 247.942187 
L 53.8 240.942187 
L 33.8 240.942187 
z
" style="fill:#2ca02c;"/>
    </g>
    <g id="text_8">
     <!-- OTHER -->
     <g transform="translate(61.8 247.942187)scale(0.1 -0.1)">
      <use xlink:href="#DejaVuSans-4f"/>
      <use x="78.710938" xlink:href="#DejaVuSans-54"/>
      <use x="139.794922" xlink:href="#DejaVuSans-48"/>
      <use x="214.990234" xlink:href="#DejaVuSans-45"/>
      <use x="278.173828" xlink:href="#DejaVuSans-52"/>
     </g>
    </g>
    <g id="patch_10">
     <path d="M 33.8 262.620313 
L 53.8 262.620313 
L 53.8 255.620313 
L 33.8 255.620313 
z
" style="fill:#d62728;"/>
    </g>
    <g id="text_9">
     <!-- SPLICING -->
     <g transform="translate(61.8 262.620313)scale(0.1 -0.1)">
      <use xlink:href="#DejaVuSans-53"/>
      <use x="63.476562" xlink:href="#DejaVuSans-50"/>
      <use x="123.779297" xlink:href="#DejaVuSans-4c"/>
      <use x="179.492188" xlink:href="#DejaVuSans-49"/>
      <use x="208.984375" xlink:href="#DejaVuSans-43"/>
      <use x="278.808594" xlink:href="#DejaVuSans-49"/>
      <use x="308.300781" xlink:href="#DejaVuSans-4e"/>
      <use x="383.105469" xlink:href="#DejaVuSans-47"/>
     </g>
    </g>
   </g>
  </g>
  <g id="axes_2">
   <g id="patch_11">
    <path d="M 399.47 144 
C 399.47 141.570151 399.410016 139.141051 399.290158 136.717195 
C 399.170301 134.293339 398.990644 131.876221 398.751521 129.470313 
L 326.55 144 
L 399.47 144 
z
" style="fill:#1f77b4;"/>
   </g>
   <g id="patch_12">
    <path d="M 398.751521 129.470313 
C 397.291683 114.782359 393.635069 100.709224 388.028946 88.202563 
C 382.422824 75.695903 374.996473 65.044127 366.252081 56.967534 
L 326.55 144 
L 398.751521 129.470313 
z
" style="fill:#ff7f0e;"/>
   </g>
   <g id="patch_13">
    <path d="M 366.252081 56.967534 
C 359.509419 50.739801 352.089207 46.141211 344.292185 43.358143 
C 336.495164 40.575075 328.428114 39.645644 320.417994 40.607521 
C 312.407874 41.569397 304.564383 44.409407 297.205417 49.012446 
C 289.846451 53.615485 283.072792 59.918513 277.158978 67.666068 
C 271.245163 75.413624 266.272182 84.499604 262.441591 94.555752 
C 258.610999 104.611901 255.975257 115.500499 254.641191 126.780231 
C 253.307124 138.059963 253.293004 149.576353 254.599403 160.86264 
C 255.905801 172.148927 258.514827 183.050545 262.320736 193.125651 
C 266.126645 203.200757 271.077315 212.311372 276.972095 220.088242 
C 282.866876 227.865113 289.625037 234.201733 296.972671 238.841281 
C 304.320304 243.480829 312.156784 246.359765 320.164497 247.361405 
C 328.172209 248.363045 336.241489 247.473673 344.045287 244.729334 
C 351.849086 241.984995 359.280529 237.423273 366.038421 231.229055 
C 372.796313 225.034838 378.788104 217.292954 383.770946 208.317184 
C 388.753788 199.341414 392.659441 189.254681 395.329608 178.465801 
C 397.999775 167.67692 399.397888 156.333647 399.467283 144.895724 
L 326.55 144 
L 366.252081 56.967534 
z
" style="fill:#2ca02c;"/>
   </g>
   <g id="patch_14">
    <path d="M 399.467283 144.895724 
C 399.468189 144.746438 399.468868 144.597148 399.469321 144.447858 
C 399.469774 144.298567 399.47 144.149275 399.47 143.999983 
L 326.55 144 
L 399.467283 144.895724 
z
" style="fill:#d62728;"/>
   </g>
   <g id="matplotlib.axis_3"/>
   <g id="matplotlib.axis_4">
    <g id="text_10">
     <!-- Rare -->
     <defs>
      <path d="M 34.28125 27.484375 
Q 23.390625 27.484375 19.1875 25 
Q 14.984375 22.515625 14.984375 16.5 
Q 14.984375 11.71875 18.140625 8.90625 
Q 21.296875 6.109375 26.703125 6.109375 
Q 34.1875 6.109375 38.703125 11.40625 
Q 43.21875 16.703125 43.21875 25.484375 
L 43.21875 27.484375 
z
M 52.203125 31.203125 
L 52.203125 0 
L 43.21875 0 
L 43.21875 8.296875 
Q 40.140625 3.328125 35.546875 0.953125 
Q 30.953125 -1.421875 24.3125 -1.421875 
Q 15.921875 -1.421875 10.953125 3.296875 
Q 6 8.015625 6 15.921875 
Q 6 25.140625 12.171875 29.828125 
Q 18.359375 34.515625 30.609375 34.515625 
L 43.21875 34.515625 
L 43.21875 35.40625 
Q 43.21875 41.609375 39.140625 45 
Q 35.0625 48.390625 27.6875 48.390625 
Q 23 48.390625 18.546875 47.265625 
Q 14.109375 46.140625 10.015625 43.890625 
L 10.015625 52.203125 
Q 14.9375 54.109375 19.578125 55.046875 
Q 24.21875 56 28.609375 56 
Q 40.484375 56 46.34375 49.84375 
Q 52.203125 43.703125 52.203125 31.203125 
z
" id="DejaVuSans-61"/>
      <path d="M 41.109375 46.296875 
Q 39.59375 47.171875 37.8125 47.578125 
Q 36.03125 48 33.890625 48 
Q 26.265625 48 22.1875 43.046875 
Q 18.109375 38.09375 18.109375 28.8125 
L 18.109375 0 
L 9.078125 0 
L 9.078125 54.6875 
L 18.109375 54.6875 
L 18.109375 46.1875 
Q 20.953125 51.171875 25.484375 53.578125 
Q 30.03125 56 36.53125 56 
Q 37.453125 56 38.578125 55.875 
Q 39.703125 55.765625 41.0625 55.515625 
z
" id="DejaVuSans-72"/>
      <path d="M 56.203125 29.59375 
L 56.203125 25.203125 
L 14.890625 25.203125 
Q 15.484375 15.921875 20.484375 11.0625 
Q 25.484375 6.203125 34.421875 6.203125 
Q 39.59375 6.203125 44.453125 7.46875 
Q 49.3125 8.734375 54.109375 11.28125 
L 54.109375 2.78125 
Q 49.265625 0.734375 44.1875 -0.34375 
Q 39.109375 -1.421875 33.890625 -1.421875 
Q 20.796875 -1.421875 13.15625 6.1875 
Q 5.515625 13.8125 5.515625 26.8125 
Q 5.515625 40.234375 12.765625 48.109375 
Q 20.015625 56 32.328125 56 
Q 43.359375 56 49.78125 48.890625 
Q 56.203125 41.796875 56.203125 29.59375 
z
M 47.21875 32.234375 
Q 47.125 39.59375 43.09375 43.984375 
Q 39.0625 48.390625 32.421875 48.390625 
Q 24.90625 48.390625 20.390625 44.140625 
Q 15.875 39.890625 15.1875 32.171875 
z
" id="DejaVuSans-65"/>
     </defs>
     <g transform="translate(229.320313 155.667188)rotate(-90)scale(0.1 -0.1)">
      <use xlink:href="#DejaVuSans-52"/>
      <use x="69.451172" xlink:href="#DejaVuSans-61"/>
      <use x="130.730469" xlink:href="#DejaVuSans-72"/>
      <use x="171.8125" xlink:href="#DejaVuSans-65"/>
     </g>
    </g>
   </g>
   <g id="text_11">
    <!-- EXONIC -->
    <g transform="translate(406.564174 138.748289)scale(0.1 -0.1)">
     <use xlink:href="#DejaVuSans-45"/>
     <use x="63.183594" xlink:href="#DejaVuSans-58"/>
     <use x="131.595703" xlink:href="#DejaVuSans-4f"/>
     <use x="210.306641" xlink:href="#DejaVuSans-4e"/>
     <use x="285.111328" xlink:href="#DejaVuSans-49"/>
     <use x="314.603516" xlink:href="#DejaVuSans-43"/>
    </g>
   </g>
   <g id="text_12">
    <!-- GENEHANCER -->
    <g transform="translate(394.176841 85.382194)scale(0.1 -0.1)">
     <use xlink:href="#DejaVuSans-47"/>
     <use x="77.490234" xlink:href="#DejaVuSans-45"/>
     <use x="140.673828" xlink:href="#DejaVuSans-4e"/>
     <use x="215.478516" xlink:href="#DejaVuSans-45"/>
     <use x="278.662109" xlink:href="#DejaVuSans-48"/>
     <use x="353.857422" xlink:href="#DejaVuSans-41"/>
     <use x="422.265625" xlink:href="#DejaVuSans-4e"/>
     <use x="497.070312" xlink:href="#DejaVuSans-43"/>
     <use x="566.894531" xlink:href="#DejaVuSans-45"/>
     <use x="630.078125" xlink:href="#DejaVuSans-52"/>
    </g>
   </g>
   <g id="text_13">
    <!-- OTHER -->
    <g transform="translate(221.130622 200.797591)scale(0.1 -0.1)">
     <use xlink:href="#DejaVuSans-4f"/>
     <use x="78.710938" xlink:href="#DejaVuSans-54"/>
     <use x="139.794922" xlink:href="#DejaVuSans-48"/>
     <use x="214.990234" xlink:href="#DejaVuSans-45"/>
     <use x="278.173828" xlink:href="#DejaVuSans-52"/>
    </g>
   </g>
   <g id="text_14">
    <!-- SPLICING -->
    <g transform="translate(406.761253 147.252019)scale(0.1 -0.1)">
     <use xlink:href="#DejaVuSans-53"/>
     <use x="63.476562" xlink:href="#DejaVuSans-50"/>
     <use x="123.779297" xlink:href="#DejaVuSans-4c"/>
     <use x="179.492188" xlink:href="#DejaVuSans-49"/>
     <use x="208.984375" xlink:href="#DejaVuSans-43"/>
     <use x="278.808594" xlink:href="#DejaVuSans-49"/>
     <use x="308.300781" xlink:href="#DejaVuSans-4e"/>
     <use x="383.105469" xlink:href="#DejaVuSans-47"/>
    </g>
   </g>
   <g id="legend_2">
    <g id="patch_15">
     <path d="M 242.4 268.7 
L 344.359375 268.7 
Q 346.359375 268.7 346.359375 266.7 
L 346.359375 208.9875 
Q 346.359375 206.9875 344.359375 206.9875 
L 242.4 206.9875 
Q 240.4 206.9875 240.4 208.9875 
L 240.4 266.7 
Q 240.4 268.7 242.4 268.7 
z
" style="fill:#ffffff;opacity:0.8;stroke:#cccccc;stroke-linejoin:miter;"/>
    </g>
    <g id="patch_16">
     <path d="M 244.4 218.585938 
L 264.4 218.585938 
L 264.4 211.585938 
L 244.4 211.585938 
z
" style="fill:#1f77b4;"/>
    </g>
    <g id="text_15">
     <!-- EXONIC -->
     <g transform="translate(272.4 218.585938)scale(0.1 -0.1)">
      <use xlink:href="#DejaVuSans-45"/>
      <use x="63.183594" xlink:href="#DejaVuSans-58"/>
      <use x="131.595703" xlink:href="#DejaVuSans-4f"/>
      <use x="210.306641" xlink:href="#DejaVuSans-4e"/>
      <use x="285.111328" xlink:href="#DejaVuSans-49"/>
      <use x="314.603516" xlink:href="#DejaVuSans-43"/>
     </g>
    </g>
    <g id="patch_17">
     <path d="M 244.4 233.264062 
L 264.4 233.264062 
L 264.4 226.264062 
L 244.4 226.264062 
z
" style="fill:#ff7f0e;"/>
    </g>
    <g id="text_16">
     <!-- GENEHANCER -->
     <g transform="translate(272.4 233.264062)scale(0.1 -0.1)">
      <use xlink:href="#DejaVuSans-47"/>
      <use x="77.490234" xlink:href="#DejaVuSans-45"/>
      <use x="140.673828" xlink:href="#DejaVuSans-4e"/>
      <use x="215.478516" xlink:href="#DejaVuSans-45"/>
      <use x="278.662109" xlink:href="#DejaVuSans-48"/>
      <use x="353.857422" xlink:href="#DejaVuSans-41"/>
      <use x="422.265625" xlink:href="#DejaVuSans-4e"/>
      <use x="497.070312" xlink:href="#DejaVuSans-43"/>
      <use x="566.894531" xlink:href="#DejaVuSans-45"/>
      <use x="630.078125" xlink:href="#DejaVuSans-52"/>
     </g>
    </g>
    <g id="patch_18">
     <path d="M 244.4 247.942187 
L 264.4 247.942187 
L 264.4 240.942187 
L 244.4 240.942187 
z
" style="fill:#2ca02c;"/>
    </g>
    <g id="text_17">
     <!-- OTHER -->
     <g transform="translate(272.4 247.942187)scale(0.1 -0.1)">
      <use xlink:href="#DejaVuSans-4f"/>
      <use x="78.710938" xlink:href="#DejaVuSans-54"/>
      <use x="139.794922" xlink:href="#DejaVuSans-48"/>
      <use x="214.990234" xlink:href="#DejaVuSans-45"/>
      <use x="278.173828" xlink:href="#DejaVuSans-52"/>
     </g>
    </g>
    <g id="patch_19">
     <path d="M 244.4 262.620313 
L 264.4 262.620313 
L 264.4 255.620313 
L 244.4 255.620313 
z
" style="fill:#d62728;"/>
    </g>
    <g id="text_18">
     <!-- SPLICING -->
     <g transform="translate(272.4 262.620313)scale(0.1 -0.1)">
      <use xlink:href="#DejaVuSans-53"/>
      <use x="63.476562" xlink:href="#DejaVuSans-50"/>
      <use x="123.779297" xlink:href="#DejaVuSans-4c"/>
      <use x="179.492188" xlink:href="#DejaVuSans-49"/>
      <use x="208.984375" xlink:href="#DejaVuSans-43"/>
      <use x="278.808594" xlink:href="#DejaVuSans-49"/>
      <use x="308.300781" xlink:href="#DejaVuSans-4e"/>
      <use x="383.105469" xlink:href="#DejaVuSans-47"/>
     </g>
    </g>
   </g>
  </g>
 </g>
</svg>
